FILE "HauntedGraveyard.iso" BINARY
  TRACK 01 MODE2/2352
    INDEX 01 00:00:00
  TRACK 02 AUDIO
    INDEX 00 00:21:69
    INDEX 01 00:23:69
  TRACK 03 AUDIO
    INDEX 00 02:47:20
    INDEX 01 02:49:20
